<?xml version="1.0" standalone="no"?>
<!DOCTYPE svg PUBLIC "-//W3C//DTD SVG 20010904//EN"
 "http://www.w3.org/TR/2001/REC-SVG-20010904/DTD/svg10.dtd">
<svg version="1.0" xmlns="http://www.w3.org/2000/svg"
 width="225.000000pt" height="225.000000pt" viewBox="0 0 225.000000 225.000000"
 preserveAspectRatio="xMidYMid meet">
<metadata>
Created by potrace 1.11, written by Peter Selinger 2001-2013
</metadata>
<g transform="translate(0.000000,225.000000) scale(0.100000,-0.100000)"
fill="#000000" stroke="none">
<path d="M0 1125 l0 -1125 1125 0 1125 0 0 1125 0 1125 -1125 0 -1125 0 0
-1125z m1360 918 l0 -33 -235 0 -235 0 0 33 0 32 235 0 235 0 0 -32z m-562
-30 c4 -43 -28 -62 -64 -38 -27 17 -29 27 -13 56 8 15 19 19 42 17 28 -3 32
-7 35 -35z m720 25 c39 -39 -17 -100 -58 -63 -34 31 -20 75 25 75 12 0 26 -5
33 -12z m-368 -76 c0 -35 21 -42 131 -42 59 0 119 -4 133 -10 34 -12 55 -47
62 -103 l7 -47 -42 0 c-38 0 -41 2 -41 28 0 53 -10 57 -125 54 -86 -3 -111 0
-132 13 -23 15 -26 15 -43 0 -15 -13 -37 -16 -125 -13 -96 3 -108 1 -121 -16
-8 -11 -14 -30 -14 -43 0 -20 -5 -23 -36 -23 l-37 0 5 52 c4 42 11 57 37 80
31 27 34 28 152 28 l121 0 11 30 c13 35 57 44 57 12z m-439 -33 l30 -21 -20
-31 c-67 -112 -72 -288 -12 -410 l28 -58 -25 -19 c-14 -11 -29 -20 -34 -20 -5
0 -25 34 -45 76 -33 70 -37 86 -41 184 -3 81 0 120 13 165 17 61 61 155 71
155 3 0 19 -9 35 -21z m894 -40 c74 -145 69 -347 -11 -486 -22 -38 -30 -40
-63 -14 l-23 18 21 41 c65 127 67 279 6 406 l-25 51 26 23 c14 12 30 20 35 16
5 -3 21 -28 34 -55z m-582 -165 c13 -42 27 -73 29 -68 3 5 15 40 28 77 19 58
25 68 43 65 16 -2 26 -20 45 -76 13 -40 26 -71 28 -69 3 3 15 35 27 73 20 61
25 69 50 72 16 2 27 -1 27 -9 0 -6 -18 -70 -41 -141 -36 -116 -42 -129 -61
-126 -17 2 -27 20 -48 83 l-27 80 -27 -83 c-24 -72 -31 -83 -49 -80 -18 3 -28
24 -63 133 -23 72 -39 133 -37 138 2 4 15 7 28 7 21 0 27 -9 48 -76z m-133
-69 l0 -26 -87 3 c-82 3 -86 4 -88 26 -2 21 1 22 87 22 88 0 88 0 88 -25z
m640 0 c0 -25 -1 -25 -84 -25 -81 0 -84 1 -88 25 l-5 25 88 0 c88 0 89 0 89
-25z m-690 -123 c0 -54 26 -65 137 -57 91 7 100 6 126 -15 15 -12 27 -17 27
-12 0 23 59 34 143 27 100 -8 124 0 129 48 3 29 6 32 42 35 l39 3 -7 -48 c-13
-98 -59 -125 -203 -116 -98 6 -123 -1 -123 -38 0 -33 -44 -24 -57 12 l-12 30
-108 -3 c-158 -4 -203 22 -203 122 0 39 1 40 35 40 32 0 35 -3 35 -28z m-46
-198 c12 -32 6 -55 -19 -66 -22 -10 -29 -9 -47 10 -19 18 -20 25 -10 47 14 29
66 36 76 9z m724 4 c39 -39 -17 -100 -58 -63 -34 31 -20 75 25 75 12 0 26 -5
33 -12z m-158 -83 l0 -55 -35 0 c-28 0 -35 4 -35 20 0 19 -7 20 -170 20 -163
0 -170 -1 -170 -20 0 -16 -7 -20 -30 -20 -30 0 -30 1 -30 55 l0 55 235 0 235
0 0 -55z m605 -240 c17 -7 39 -20 50 -28 20 -15 20 -16 -8 -45 l-28 -29 -46
24 c-57 28 -75 29 -128 3 -49 -24 -85 -81 -85 -135 0 -76 76 -155 148 -155 28
0 91 26 114 47 17 15 20 15 43 -7 14 -13 25 -29 25 -37 0 -20 -98 -71 -150
-78 -95 -13 -190 32 -237 112 -23 40 -28 59 -28 118 0 58 5 78 28 117 15 26
41 57 59 69 65 47 167 57 243 24z m-1625 -120 c24 -74 47 -129 51 -123 4 7 26
68 49 136 43 122 43 122 75 122 32 0 32 -1 69 -107 65 -188 55 -185 106 -29
l44 136 43 0 c24 0 43 -3 43 -7 0 -4 -33 -105 -72 -225 l-73 -218 -31 0 c-31
0 -32 0 -80 137 -55 158 -45 161 -109 -29 -36 -107 -37 -108 -69 -108 l-32 0
-72 218 c-40 120 -72 222 -72 225 0 4 19 7 43 7 l43 0 44 -135z m660 -90 l0
-225 -45 0 -45 0 0 225 0 225 45 0 45 0 0 -225z m315 84 l120 -141 3 141 3
141 44 0 45 0 0 -225 0 -225 -32 0 c-30 1 -45 15 -153 142 l-120 142 -3 -142
-3 -142 -44 0 -45 0 0 225 0 225 33 0 c29 0 43 -13 152 -141z m-147 -526 l3
-100 -51 -2 c-83 -1 -116 53 -68 114 18 23 27 26 55 22 33 -6 33 -6 33 34 0
28 4 39 13 37 8 -3 13 -36 15 -105z m-557 -2 c21 -51 39 -95 39 -97 0 -2 -7
-4 -15 -4 -9 0 -20 11 -25 25 -8 21 -16 25 -54 25 -38 0 -45 -3 -50 -25 -4
-14 -13 -25 -21 -25 -21 0 -20 3 22 108 24 59 43 91 52 90 7 -2 31 -45 52 -97z
m174 26 c25 -19 11 -41 -15 -24 -28 17 -55 -2 -55 -39 0 -28 1 -29 48 -27 49
1 60 -9 28 -27 -54 -28 -111 1 -111 57 0 59 59 93 105 60z m195 -57 l0 -67
-49 -2 c-43 0 -53 3 -70 26 -27 34 -26 59 3 88 19 19 34 24 70 23 l46 -1 0
-67z m350 50 c11 -11 20 -29 20 -40 0 -17 -7 -20 -50 -20 -52 0 -64 -12 -30
-30 14 -7 26 -8 39 0 13 7 22 7 26 0 11 -18 -6 -30 -45 -30 -29 0 -43 6 -54
22 -34 49 -5 118 49 118 14 0 34 -9 45 -20z m185 10 c6 0 24 2 40 5 47 10 67
-12 73 -79 4 -46 2 -56 -11 -56 -12 0 -17 12 -19 46 -3 50 -22 72 -52 61 -12
-5 -16 -19 -16 -57 0 -38 -4 -50 -15 -50 -11 0 -15 11 -15 43 0 53 -11 70 -41
65 -21 -3 -24 -9 -27 -55 -2 -38 -7 -53 -18 -53 -11 0 -14 16 -14 70 l0 69 53
-4 c28 -2 57 -5 62 -5z m191 -30 c9 -22 20 -40 24 -40 4 0 14 18 23 40 9 25
22 40 32 40 10 0 15 -5 12 -12 -38 -93 -73 -158 -83 -158 -9 0 -12 9 -8 28 4
20 -2 45 -20 80 -30 60 -31 62 -11 62 8 0 22 -18 31 -40z"/>
<path d="M1072 358 c-29 -29 -2 -72 40 -66 17 2 24 11 26 32 5 41 -37 63 -66
34z"/>
<path d="M541 370 c-10 -29 -9 -30 20 -30 l30 0 -16 30 c-9 17 -17 30 -19 30
-2 0 -9 -13 -15 -30z"/>
<path d="M879 346 c-15 -33 4 -58 40 -54 22 3 26 8 26 38 0 31 -3 35 -27 38
-22 3 -30 -2 -39 -22z"/>
<path d="M1255 360 c-4 -6 8 -10 30 -10 22 0 34 4 30 10 -3 6 -17 10 -30 10
-13 0 -27 -4 -30 -10z"/>
</g>
</svg>
